<svg width="1364" height="703" viewBox="0 0 1364 703" version="1.1" fill="none" xmlns="http://www.w3.org/2000/svg">
<rect width="1364" height="703" fill="#E5E5E5"/>
<g clip-path="url(#clip0)">
<rect width="1364" height="703" fill="white"/>
<path d="M0 0L1364 0V351L1144.04 310.886C1142.31 310.57 1141.44 310.412 1140.58 310.263C1118.68 306.466 1096.3 306.347 1074.36 309.911C1073.49 310.051 1072.63 310.2 1070.89 310.498L905.701 338.812C903.889 339.123 902.982 339.278 902.082 339.424C879.204 343.131 855.856 342.833 833.081 338.544C832.184 338.375 831.282 338.197 829.478 337.84L699.029 312.04C697.154 311.669 696.217 311.484 695.285 311.309C671.622 306.861 647.349 306.723 623.636 310.902C622.703 311.066 621.763 311.241 619.884 311.59L445.576 344.011C443.793 344.343 442.902 344.508 442.015 344.665C419.504 348.643 396.478 348.732 373.937 344.928C373.049 344.778 372.156 344.619 370.371 344.301L239.986 321.091C238.231 320.778 237.353 320.622 236.481 320.475C214.319 316.732 191.685 316.751 169.529 320.532C168.657 320.68 167.78 320.838 166.025 321.154L0 351L0 0Z" fill="#C8E0BD" fill-opacity="0.79"/>
<path d="M0 179.746L47.8945 170.553C118.66 156.97 191.337 156.696 262.203 169.745L275.833 172.255C302.817 177.224 330.37 178.332 357.665 175.547L446.953 166.435C528.198 158.144 595.19 229.187 582.148 309.806V309.806C580.274 321.393 572.025 330.932 560.829 334.459L427.58 376.437C394.738 386.784 359.781 388.476 326.093 381.349L219.742 358.852C182.388 350.95 143.553 353.905 107.825 367.369L0 408V179.746Z" fill="#E4DEDE"/>
</g>
<defs>
<clipPath id="clip0">
<rect width="1364" height="703" fill="white"/>
</clipPath>
</defs>
</svg>
